<mxfile host="app.diagrams.net" modified="2023-07-20T23:15:19.162Z" agent="Mozilla/5.0 (Windows NT 10.0; Win64; x64) AppleWebKit/537.36 (KHTML, like Gecko) Chrome/115.0.0.0 Safari/537.36" etag="_BujkD-hI4cxcXgGi59J" version="21.6.2" type="device">
  <diagram name="Página-1" id="HOQdrdhTdt3YnvvrlkyZ">
    <mxGraphModel dx="733" dy="408" grid="0" gridSize="10" guides="1" tooltips="1" connect="1" arrows="1" fold="1" page="1" pageScale="1" pageWidth="827" pageHeight="1169" math="0" shadow="0">
      <root>
        <mxCell id="0" />
        <mxCell id="1" parent="0" />
        <mxCell id="M7B93Nu0lnpoiTcxgh36-25" value="" style="rounded=1;whiteSpace=wrap;html=1;" vertex="1" parent="1">
          <mxGeometry x="364" y="136" width="225" height="291" as="geometry" />
        </mxCell>
        <mxCell id="M7B93Nu0lnpoiTcxgh36-1" value="Repositories" style="rounded=0;whiteSpace=wrap;html=1;" vertex="1" parent="1">
          <mxGeometry x="414" y="361" width="120" height="49" as="geometry" />
        </mxCell>
        <mxCell id="M7B93Nu0lnpoiTcxgh36-3" value="T-SQL" style="shape=datastore;whiteSpace=wrap;html=1;" vertex="1" parent="1">
          <mxGeometry x="433" y="475" width="86" height="86" as="geometry" />
        </mxCell>
        <mxCell id="M7B93Nu0lnpoiTcxgh36-4" value="Services" style="rounded=0;whiteSpace=wrap;html=1;" vertex="1" parent="1">
          <mxGeometry x="414" y="258" width="120" height="49" as="geometry" />
        </mxCell>
        <mxCell id="M7B93Nu0lnpoiTcxgh36-5" value="Controllers" style="rounded=0;whiteSpace=wrap;html=1;" vertex="1" parent="1">
          <mxGeometry x="414" y="154" width="120" height="49" as="geometry" />
        </mxCell>
        <mxCell id="M7B93Nu0lnpoiTcxgh36-14" value="FRONT-END" style="rounded=0;whiteSpace=wrap;html=1;" vertex="1" parent="1">
          <mxGeometry x="329.5" y="30" width="289" height="60" as="geometry" />
        </mxCell>
        <mxCell id="M7B93Nu0lnpoiTcxgh36-17" value="" style="endArrow=classic;html=1;rounded=0;exitX=0.75;exitY=0;exitDx=0;exitDy=0;entryX=0.75;entryY=1;entryDx=0;entryDy=0;" edge="1" parent="1">
          <mxGeometry width="50" height="50" relative="1" as="geometry">
            <mxPoint x="486" y="258" as="sourcePoint" />
            <mxPoint x="486" y="203" as="targetPoint" />
          </mxGeometry>
        </mxCell>
        <mxCell id="M7B93Nu0lnpoiTcxgh36-18" value="" style="endArrow=classic;html=1;rounded=0;exitX=0.25;exitY=1;exitDx=0;exitDy=0;entryX=0.25;entryY=0;entryDx=0;entryDy=0;" edge="1" parent="1">
          <mxGeometry width="50" height="50" relative="1" as="geometry">
            <mxPoint x="464" y="203" as="sourcePoint" />
            <mxPoint x="464" y="258" as="targetPoint" />
          </mxGeometry>
        </mxCell>
        <mxCell id="M7B93Nu0lnpoiTcxgh36-19" value="" style="endArrow=classic;html=1;rounded=0;exitX=0.75;exitY=0;exitDx=0;exitDy=0;entryX=0.75;entryY=1;entryDx=0;entryDy=0;" edge="1" parent="1">
          <mxGeometry width="50" height="50" relative="1" as="geometry">
            <mxPoint x="487" y="361" as="sourcePoint" />
            <mxPoint x="487" y="306" as="targetPoint" />
          </mxGeometry>
        </mxCell>
        <mxCell id="M7B93Nu0lnpoiTcxgh36-20" value="" style="endArrow=classic;html=1;rounded=0;exitX=0.75;exitY=0;exitDx=0;exitDy=0;entryX=0.545;entryY=0.992;entryDx=0;entryDy=0;entryPerimeter=0;" edge="1" parent="1" target="M7B93Nu0lnpoiTcxgh36-14">
          <mxGeometry width="50" height="50" relative="1" as="geometry">
            <mxPoint x="488" y="154" as="sourcePoint" />
            <mxPoint x="488" y="99" as="targetPoint" />
          </mxGeometry>
        </mxCell>
        <mxCell id="M7B93Nu0lnpoiTcxgh36-21" value="" style="endArrow=classic;html=1;rounded=0;exitX=0.628;exitY=0.014;exitDx=0;exitDy=0;entryX=0.75;entryY=1;entryDx=0;entryDy=0;exitPerimeter=0;" edge="1" parent="1" source="M7B93Nu0lnpoiTcxgh36-3">
          <mxGeometry width="50" height="50" relative="1" as="geometry">
            <mxPoint x="487" y="465" as="sourcePoint" />
            <mxPoint x="487" y="410" as="targetPoint" />
          </mxGeometry>
        </mxCell>
        <mxCell id="M7B93Nu0lnpoiTcxgh36-22" value="" style="endArrow=classic;html=1;rounded=0;exitX=0.25;exitY=1;exitDx=0;exitDy=0;entryX=0.25;entryY=0;entryDx=0;entryDy=0;" edge="1" parent="1">
          <mxGeometry width="50" height="50" relative="1" as="geometry">
            <mxPoint x="464" y="307" as="sourcePoint" />
            <mxPoint x="464" y="362" as="targetPoint" />
          </mxGeometry>
        </mxCell>
        <mxCell id="M7B93Nu0lnpoiTcxgh36-23" value="" style="endArrow=classic;html=1;rounded=0;exitX=0.25;exitY=1;exitDx=0;exitDy=0;entryX=0.357;entryY=0.014;entryDx=0;entryDy=0;entryPerimeter=0;" edge="1" parent="1" target="M7B93Nu0lnpoiTcxgh36-3">
          <mxGeometry width="50" height="50" relative="1" as="geometry">
            <mxPoint x="463" y="410" as="sourcePoint" />
            <mxPoint x="463" y="465" as="targetPoint" />
          </mxGeometry>
        </mxCell>
        <mxCell id="M7B93Nu0lnpoiTcxgh36-24" value="" style="endArrow=classic;html=1;rounded=0;entryX=0.25;entryY=0;entryDx=0;entryDy=0;" edge="1" parent="1">
          <mxGeometry width="50" height="50" relative="1" as="geometry">
            <mxPoint x="463" y="91" as="sourcePoint" />
            <mxPoint x="463" y="154" as="targetPoint" />
          </mxGeometry>
        </mxCell>
        <mxCell id="M7B93Nu0lnpoiTcxgh36-26" value="REQUISIÇÕES HTTP" style="text;html=1;strokeColor=none;fillColor=none;align=center;verticalAlign=middle;whiteSpace=wrap;rounded=0;" vertex="1" parent="1">
          <mxGeometry x="223" y="106" width="100" height="30" as="geometry" />
        </mxCell>
        <mxCell id="M7B93Nu0lnpoiTcxgh36-27" value="Request" style="text;html=1;strokeColor=none;fillColor=none;align=center;verticalAlign=middle;whiteSpace=wrap;rounded=0;" vertex="1" parent="1">
          <mxGeometry x="402" y="98" width="60" height="30" as="geometry" />
        </mxCell>
        <mxCell id="M7B93Nu0lnpoiTcxgh36-28" value="Response" style="text;html=1;strokeColor=none;fillColor=none;align=center;verticalAlign=middle;whiteSpace=wrap;rounded=0;" vertex="1" parent="1">
          <mxGeometry x="496" y="98" width="60" height="30" as="geometry" />
        </mxCell>
        <mxCell id="M7B93Nu0lnpoiTcxgh36-29" value="BACK-END&lt;br&gt;(JAVA)" style="text;html=1;strokeColor=none;fillColor=none;align=center;verticalAlign=middle;whiteSpace=wrap;rounded=0;" vertex="1" parent="1">
          <mxGeometry x="223" y="267.5" width="100" height="30" as="geometry" />
        </mxCell>
      </root>
    </mxGraphModel>
  </diagram>
</mxfile>
